<svg 
 xmlns="http://www.w3.org/2000/svg"
 xmlns:xlink="http://www.w3.org/1999/xlink"
 width="1251px" height="995px">
<path fill-rule="evenodd"  fill="rgb(255, 255, 255)"
 d="M1230.532,71.066 L1250.332,129.566 L1230.893,129.566 L1213.793,74.846 L1202.812,74.846 L1202.812,129.566 L1184.452,129.566 L1184.452,1.406 L1213.972,1.406 C1235.573,1.406 1246.373,13.947 1246.373,39.026 C1246.373,46.586 1245.202,53.007 1242.862,58.286 C1240.523,63.568 1236.411,67.826 1230.532,71.066 ZM1227.473,30.116 C1227.112,27.658 1226.393,25.526 1225.312,23.726 C1223.032,20.368 1218.712,18.686 1212.352,18.686 L1202.812,18.686 L1202.812,58.646 L1213.252,58.646 C1216.493,58.646 1219.072,58.196 1220.993,57.296 C1222.911,56.396 1224.412,55.108 1225.493,53.426 C1226.452,51.747 1227.112,49.677 1227.473,47.216 C1227.832,44.758 1228.012,41.906 1228.012,38.666 C1228.012,35.426 1227.832,32.577 1227.473,30.116 ZM1246.373,255.026 C1246.373,262.586 1245.202,269.007 1242.862,274.286 C1240.523,279.568 1236.410,283.826 1230.532,287.066 L1250.332,345.566 L1230.892,345.566 L1213.792,290.846 L1202.812,290.846 L1202.812,345.566 L1184.452,345.566 L1184.452,217.406 L1213.972,217.406 C1235.573,217.406 1246.373,229.947 1246.373,255.026 ZM1202.812,234.686 L1202.812,274.646 L1213.252,274.646 C1216.492,274.646 1219.071,274.196 1220.992,273.296 C1222.910,272.396 1224.412,271.108 1225.492,269.426 C1226.451,267.747 1227.112,265.677 1227.473,263.216 C1227.832,260.758 1228.012,257.906 1228.012,254.666 C1228.012,251.426 1227.832,248.577 1227.473,246.116 C1227.112,243.658 1226.392,241.526 1225.312,239.726 C1223.031,236.368 1218.711,234.686 1212.352,234.686 L1202.812,234.686 ZM1246.372,471.026 C1246.372,478.586 1245.202,485.007 1242.862,490.286 C1240.522,495.568 1236.410,499.826 1230.532,503.066 L1250.332,561.566 L1230.892,561.566 L1213.792,506.846 L1202.812,506.846 L1202.812,561.566 L1184.452,561.566 L1184.452,433.406 L1213.972,433.406 C1235.572,433.406 1246.372,445.947 1246.372,471.026 ZM1202.812,450.686 L1202.812,490.646 L1213.252,490.646 C1216.492,490.646 1219.071,490.196 1220.992,489.296 C1222.910,488.396 1224.412,487.108 1225.492,485.426 C1226.451,483.747 1227.112,481.677 1227.472,479.216 C1227.832,476.758 1228.012,473.906 1228.012,470.666 C1228.012,467.426 1227.832,464.577 1227.472,462.116 C1227.112,459.658 1226.392,457.526 1225.312,455.726 C1223.031,452.368 1218.711,450.686 1212.352,450.686 L1202.812,450.686 ZM1117.852,865.406 L1172.572,865.406 L1172.572,882.686 L1136.212,882.686 L1136.212,920.306 L1167.892,920.306 L1167.892,937.586 L1136.212,937.586 L1136.212,975.206 L1172.572,975.206 L1172.572,993.566 L1117.852,993.566 L1117.852,865.406 ZM1117.852,217.406 L1172.572,217.406 L1172.572,234.686 L1136.212,234.686 L1136.212,272.306 L1167.892,272.306 L1167.892,289.586 L1136.212,289.586 L1136.212,327.206 L1172.572,327.206 L1172.572,345.566 L1117.852,345.566 L1117.852,217.406 ZM1106.176,122.726 C1103.175,125.367 1099.846,127.347 1096.186,128.666 C1092.525,129.985 1088.835,130.646 1085.116,130.646 C1081.396,130.646 1077.706,129.985 1074.046,128.666 C1070.385,127.347 1067.116,125.367 1064.236,122.726 C1061.235,120.206 1058.836,117.028 1057.036,113.186 C1055.236,109.347 1054.336,104.726 1054.336,99.326 L1054.336,31.646 C1054.336,26.488 1055.236,21.926 1057.036,17.966 C1058.836,14.006 1061.235,10.707 1064.236,8.066 C1067.116,5.546 1070.385,3.628 1074.046,2.306 C1077.706,0.987 1081.396,0.326 1085.116,0.326 C1088.835,0.326 1092.525,0.987 1096.186,2.306 C1099.846,3.628 1103.175,5.546 1106.176,8.066 C1109.056,10.707 1111.396,14.006 1113.196,17.966 C1114.996,21.926 1115.896,26.488 1115.896,31.646 L1115.896,99.326 C1115.896,104.726 1114.996,109.347 1113.196,113.186 C1111.396,117.028 1109.056,120.206 1106.176,122.726 ZM1097.536,31.646 C1097.536,27.208 1096.305,23.937 1093.846,21.836 C1091.385,19.738 1088.475,18.686 1085.116,18.686 C1081.756,18.686 1078.845,19.738 1076.386,21.836 C1073.925,23.937 1072.696,27.208 1072.696,31.646 L1072.696,99.326 C1072.696,103.767 1073.925,107.038 1076.386,109.136 C1078.845,111.237 1081.756,112.286 1085.116,112.286 C1088.475,112.286 1091.385,111.237 1093.846,109.136 C1096.305,107.038 1097.536,103.767 1097.536,99.326 L1097.536,31.646 ZM1082.572,294.626 L1082.932,294.626 L1082.932,217.406 L1101.292,217.406 L1101.292,345.566 L1084.012,345.566 L1055.932,268.526 L1055.572,268.526 L1055.572,345.566 L1037.212,345.566 L1037.212,217.406 L1054.852,217.406 L1082.572,294.626 ZM1081.105,649.406 L1135.825,649.406 L1135.825,666.686 L1099.465,666.686 L1099.465,704.306 L1131.145,704.306 L1131.145,721.586 L1099.465,721.586 L1099.465,759.206 L1135.825,759.206 L1135.825,777.566 L1081.105,777.566 L1081.105,649.406 ZM1138.443,543.206 L1138.443,561.566 L1083.723,561.566 L1083.723,433.406 L1138.443,433.406 L1138.443,450.686 L1102.083,450.686 L1102.083,488.306 L1133.763,488.306 L1133.763,505.586 L1102.083,505.586 L1102.083,543.206 L1138.443,543.206 ZM1082.572,942.626 L1082.932,942.626 L1082.932,865.406 L1101.292,865.406 L1101.292,993.566 L1084.012,993.566 L1055.932,916.526 L1055.572,916.526 L1055.572,993.566 L1037.212,993.566 L1037.212,865.406 L1054.852,865.406 L1082.572,942.626 ZM1013.954,504.506 L991.274,504.506 L991.274,561.566 L972.914,561.566 L972.914,433.406 L991.274,433.406 L991.274,488.306 L1013.954,488.306 L1013.954,433.406 L1032.314,433.406 L1032.314,561.566 L1013.954,561.566 L1013.954,504.506 ZM1012.012,338.726 C1009.011,341.367 1005.681,343.347 1002.022,344.666 C998.360,345.985 994.670,346.646 990.952,346.646 C987.231,346.646 983.541,345.985 979.882,344.666 C976.220,343.347 972.952,341.367 970.072,338.726 C967.071,336.206 964.672,333.028 962.872,329.186 C961.072,325.347 960.172,320.726 960.172,315.326 L960.172,247.646 C960.172,242.488 961.072,237.926 962.872,233.966 C964.672,230.006 967.071,226.707 970.072,224.066 C972.952,221.546 976.220,219.628 979.882,218.306 C983.541,216.987 987.231,216.326 990.952,216.326 C994.670,216.326 998.360,216.987 1002.022,218.306 C1005.681,219.628 1009.011,221.546 1012.012,224.066 C1014.892,226.707 1017.232,230.006 1019.032,233.966 C1020.832,237.926 1021.732,242.488 1021.732,247.646 L1021.732,254.126 L1003.372,254.126 L1003.372,247.646 C1003.372,243.208 1002.140,239.937 999.682,237.836 C997.221,235.738 994.310,234.686 990.952,234.686 C987.591,234.686 984.680,235.738 982.222,237.836 C979.761,239.937 978.532,243.208 978.532,247.646 L978.532,315.326 C978.532,319.767 979.761,323.038 982.222,325.136 C984.680,327.237 987.591,328.286 990.952,328.286 C994.310,328.286 997.221,327.237 999.682,325.136 C1002.140,323.038 1003.372,319.767 1003.372,315.326 L1003.372,291.206 L988.792,291.206 L988.792,275.006 L1021.732,275.006 L1021.732,315.326 C1021.732,320.726 1020.832,325.347 1019.032,329.186 C1017.232,333.028 1014.892,336.206 1012.012,338.726 ZM975.880,129.566 L957.520,129.566 L957.520,18.686 L936.280,18.686 L936.280,1.406 L997.120,1.406 L997.120,18.686 L975.880,18.686 L975.880,129.566 ZM943.432,345.566 L925.072,345.566 L925.072,217.406 L943.432,217.406 L943.432,345.566 ZM924.115,487.046 C923.454,491.006 922.045,494.727 919.885,498.206 C917.365,502.408 914.004,505.676 909.805,508.016 C905.603,510.356 900.085,511.526 893.245,511.526 L883.885,511.526 L883.885,561.566 L865.525,561.566 L865.525,433.406 L893.065,433.406 C898.105,433.406 902.543,434.067 906.385,435.386 C910.224,436.708 913.703,439.048 916.825,442.406 C919.944,445.767 922.104,449.696 923.305,454.196 C924.503,458.696 925.105,464.788 925.105,472.466 C925.105,478.226 924.773,483.086 924.115,487.046 ZM907.645,464.096 C907.524,461.396 906.984,459.028 906.025,456.986 C905.063,454.947 903.623,453.386 901.705,452.306 C899.784,451.226 897.025,450.686 893.425,450.686 L883.885,450.686 L883.885,494.246 L892.705,494.246 C896.423,494.246 899.303,493.706 901.345,492.626 C903.384,491.546 904.883,490.047 905.845,488.126 C906.804,486.326 907.375,484.107 907.555,481.466 C907.735,478.828 907.825,475.886 907.825,472.646 C907.825,469.648 907.763,466.796 907.645,464.096 ZM868.732,262.046 C869.452,263.368 870.501,264.507 871.882,265.466 C873.260,266.428 875.150,267.387 877.552,268.346 L891.592,273.926 C895.670,275.487 898.972,277.318 901.492,279.416 C904.012,281.517 905.992,283.947 907.432,286.706 C908.751,289.586 909.651,292.857 910.132,296.516 C910.610,300.178 910.852,304.346 910.852,309.026 C910.852,314.426 910.312,319.438 909.232,324.056 C908.152,328.677 906.411,332.606 904.012,335.846 C901.492,339.207 898.190,341.848 894.112,343.766 C890.031,345.684 885.050,346.646 879.172,346.646 C874.731,346.646 870.591,345.864 866.752,344.306 C862.910,342.748 859.611,340.588 856.852,337.826 C854.090,335.067 851.902,331.858 850.282,328.196 C848.662,324.537 847.852,320.546 847.852,316.226 L847.852,309.386 L866.212,309.386 L866.212,315.146 C866.212,318.507 867.202,321.536 869.182,324.236 C871.162,326.936 874.492,328.286 879.172,328.286 C882.291,328.286 884.721,327.836 886.462,326.936 C888.200,326.036 889.550,324.748 890.512,323.066 C891.471,321.387 892.042,319.376 892.222,317.036 C892.402,314.696 892.492,312.086 892.492,309.206 C892.492,305.848 892.371,303.086 892.132,300.926 C891.890,298.766 891.412,297.028 890.692,295.706 C889.851,294.387 888.740,293.307 887.362,292.466 C885.981,291.628 884.150,290.728 881.872,289.766 L868.732,284.366 C860.812,281.126 855.502,276.837 852.802,271.496 C850.102,266.158 848.752,259.467 848.752,251.426 C848.752,246.628 849.410,242.066 850.732,237.746 C852.051,233.426 854.031,229.708 856.672,226.586 C859.192,223.467 862.401,220.978 866.302,219.116 C870.200,217.257 874.852,216.326 880.252,216.326 C884.811,216.326 888.982,217.167 892.762,218.846 C896.542,220.528 899.810,222.747 902.572,225.506 C908.090,231.266 910.852,237.867 910.852,245.306 L910.852,254.306 L892.492,254.306 L892.492,250.166 C892.492,245.967 891.502,242.336 889.522,239.276 C887.542,236.216 884.212,234.686 879.532,234.686 C877.012,234.686 874.970,235.167 873.412,236.126 C871.851,237.088 870.591,238.286 869.632,239.726 C868.670,241.287 868.012,243.056 867.652,245.036 C867.292,247.016 867.112,249.086 867.112,251.246 C867.112,253.766 867.202,255.867 867.382,257.546 C867.562,259.228 868.012,260.727 868.732,262.046 ZM870.244,102.026 L845.224,102.026 L839.824,129.566 L821.464,129.566 L850.084,1.406 L865.384,1.406 L894.004,129.566 L875.644,129.566 L870.244,102.026 ZM857.824,38.306 L857.464,38.306 L848.464,84.746 L866.824,84.746 L857.824,38.306 ZM839.572,234.686 L803.212,234.686 L803.212,272.306 L834.892,272.306 L834.892,289.586 L803.212,289.586 L803.212,327.206 L839.572,327.206 L839.572,345.566 L784.852,345.566 L784.852,217.406 L839.572,217.406 L839.572,234.686 ZM822.396,561.566 L804.036,561.566 L798.636,534.026 L773.616,534.026 L768.216,561.566 L749.856,561.566 L778.476,433.406 L793.776,433.406 L822.396,561.566 ZM785.856,470.306 L776.856,516.746 L795.216,516.746 L786.216,470.306 L785.856,470.306 ZM733.732,345.566 L708.172,345.566 L708.172,217.406 L735.352,217.406 C745.910,217.406 753.920,220.286 759.382,226.046 C764.841,231.806 767.572,239.968 767.572,250.526 L767.572,310.466 C767.572,322.467 764.661,331.318 758.842,337.016 C753.020,342.717 744.650,345.566 733.732,345.566 ZM749.212,250.526 C749.212,245.486 748.191,241.588 746.152,238.826 C744.110,236.067 740.392,234.686 734.992,234.686 L726.532,234.686 L726.532,328.286 L734.992,328.286 C740.150,328.286 743.812,326.998 745.972,324.416 C748.132,321.837 749.212,317.787 749.212,312.266 L749.212,250.526 ZM747.148,129.566 L730.048,74.846 L719.068,74.846 L719.068,129.566 L700.708,129.566 L700.708,1.406 L730.228,1.406 C751.828,1.406 762.628,13.947 762.628,39.026 C762.628,46.586 761.458,53.007 759.118,58.286 C756.778,63.568 752.666,67.826 746.788,71.066 L766.588,129.566 L747.148,129.566 ZM743.728,30.116 C743.368,27.658 742.648,25.526 741.568,23.726 C739.287,20.368 734.967,18.686 728.608,18.686 L719.068,18.686 L719.068,58.646 L729.508,58.646 C732.748,58.646 735.327,58.196 737.248,57.296 C739.166,56.396 740.668,55.108 741.748,53.426 C742.707,51.747 743.368,49.677 743.728,47.216 C744.088,44.758 744.268,41.906 744.268,38.666 C744.268,35.426 744.088,32.577 743.728,30.116 ZM705.737,490.286 C703.397,495.568 699.285,499.826 693.407,503.066 L713.207,561.566 L693.767,561.566 L676.667,506.846 L665.687,506.846 L665.687,561.566 L647.327,561.566 L647.327,433.406 L676.847,433.406 C698.447,433.406 709.247,445.947 709.247,471.026 C709.247,478.586 708.077,485.007 705.737,490.286 ZM690.347,462.116 C689.987,459.658 689.267,457.526 688.187,455.726 C685.906,452.368 681.586,450.686 675.227,450.686 L665.687,450.686 L665.687,490.646 L676.127,490.646 C679.367,490.646 681.946,490.196 683.867,489.296 C685.785,488.396 687.287,487.108 688.367,485.426 C689.326,483.747 689.987,481.677 690.347,479.216 C690.707,476.758 690.887,473.906 690.887,470.666 C690.887,467.426 690.707,464.577 690.347,462.116 ZM619.012,129.566 L600.652,129.566 L600.652,18.686 L579.412,18.686 L579.412,1.406 L640.252,1.406 L640.252,18.686 L619.012,18.686 L619.012,129.566 ZM594.298,449.966 C596.098,453.926 596.998,458.488 596.998,463.646 L596.998,470.126 L578.638,470.126 L578.638,463.646 C578.638,459.208 577.406,455.937 574.948,453.836 C572.487,451.738 569.576,450.686 566.218,450.686 C562.857,450.686 559.946,451.738 557.488,453.836 C555.027,455.937 553.798,459.208 553.798,463.646 L553.798,531.326 C553.798,535.767 555.027,539.038 557.488,541.136 C559.946,543.237 562.857,544.286 566.218,544.286 C569.576,544.286 572.487,543.237 574.948,541.136 C577.406,539.038 578.638,535.767 578.638,531.326 L578.638,507.206 L564.058,507.206 L564.058,491.006 L596.998,491.006 L596.998,531.326 C596.998,536.726 596.098,541.347 594.298,545.186 C592.498,549.028 590.158,552.206 587.278,554.726 C584.277,557.367 580.947,559.347 577.288,560.666 C573.626,561.985 569.936,562.646 566.218,562.646 C562.497,562.646 558.807,561.985 555.148,560.666 C551.486,559.347 548.218,557.367 545.338,554.726 C542.337,552.206 539.938,549.028 538.138,545.186 C536.338,541.347 535.438,536.726 535.438,531.326 L535.438,463.646 C535.438,458.488 536.338,453.926 538.138,449.966 C539.938,446.006 542.337,442.707 545.338,440.066 C548.218,437.546 551.486,435.628 555.148,434.306 C558.807,432.987 562.497,432.326 566.218,432.326 C569.936,432.326 573.626,432.987 577.288,434.306 C580.947,435.628 584.277,437.546 587.278,440.066 C590.158,442.707 592.498,446.006 594.298,449.966 ZM550.509,648.326 C554.227,648.326 557.917,648.987 561.579,650.306 C565.238,651.628 568.568,653.546 571.569,656.066 C574.449,658.707 576.789,662.006 578.589,665.966 C580.389,669.926 581.289,674.488 581.289,679.646 L581.289,686.126 L562.929,686.126 L562.929,679.646 C562.929,675.208 561.697,671.937 559.239,669.836 C556.778,667.738 553.867,666.686 550.509,666.686 C547.148,666.686 544.237,667.738 541.779,669.836 C539.318,671.937 538.089,675.208 538.089,679.646 L538.089,747.326 C538.089,751.767 539.318,755.038 541.779,757.136 C544.237,759.237 547.148,760.286 550.509,760.286 C553.867,760.286 556.778,759.237 559.239,757.136 C561.697,755.038 562.929,751.767 562.929,747.326 L562.929,723.206 L548.349,723.206 L548.349,707.006 L581.289,707.006 L581.289,747.326 C581.289,752.726 580.389,757.347 578.589,761.186 C576.789,765.028 574.449,768.206 571.569,770.726 C568.568,773.367 565.238,775.347 561.579,776.666 C557.917,777.985 554.227,778.646 550.509,778.646 C546.788,778.646 543.098,777.985 539.439,776.666 C535.777,775.347 532.509,773.367 529.629,770.726 C526.628,768.206 524.229,765.028 522.429,761.186 C520.629,757.347 519.729,752.726 519.729,747.326 L519.729,679.646 C519.729,674.488 520.629,669.926 522.429,665.966 C524.229,662.006 526.628,658.707 529.629,656.066 C532.509,653.546 535.777,651.628 539.439,650.306 C543.098,648.987 546.788,648.326 550.509,648.326 ZM480.436,46.046 C481.156,47.368 482.205,48.507 483.586,49.466 C484.964,50.428 486.854,51.387 489.256,52.346 L503.296,57.926 C507.374,59.487 510.676,61.318 513.196,63.416 C515.716,65.517 517.696,67.947 519.136,70.706 C520.455,73.586 521.355,76.857 521.836,80.516 C522.314,84.178 522.556,88.346 522.556,93.026 C522.556,98.426 522.016,103.438 520.936,108.056 C519.856,112.677 518.115,116.606 515.716,119.846 C513.196,123.207 509.894,125.848 505.816,127.766 C501.735,129.684 496.754,130.646 490.876,130.646 C486.435,130.646 482.295,129.864 478.456,128.306 C474.614,126.748 471.315,124.588 468.556,121.826 C465.794,119.067 463.606,115.858 461.986,112.196 C460.366,108.537 459.556,104.546 459.556,100.226 L459.556,93.386 L477.916,93.386 L477.916,99.146 C477.916,102.507 478.906,105.536 480.886,108.236 C482.866,110.936 486.196,112.286 490.876,112.286 C493.995,112.286 496.425,111.836 498.166,110.936 C499.904,110.036 501.254,108.748 502.216,107.066 C503.175,105.387 503.746,103.376 503.926,101.036 C504.106,98.696 504.196,96.086 504.196,93.206 C504.196,89.848 504.075,87.086 503.836,84.926 C503.594,82.766 503.116,81.028 502.396,79.706 C501.555,78.387 500.444,77.307 499.066,76.466 C497.685,75.628 495.854,74.728 493.576,73.766 L480.436,68.366 C472.516,65.126 467.206,60.837 464.506,55.496 C461.806,50.158 460.456,43.467 460.456,35.426 C460.456,30.628 461.114,26.066 462.436,21.746 C463.755,17.426 465.735,13.708 468.376,10.586 C470.896,7.467 474.105,4.978 478.006,3.116 C481.904,1.257 486.556,0.326 491.956,0.326 C496.515,0.326 500.686,1.167 504.466,2.846 C508.246,4.528 511.514,6.747 514.276,9.506 C519.794,15.266 522.556,21.867 522.556,29.306 L522.556,38.306 L504.196,38.306 L504.196,34.166 C504.196,29.967 503.206,26.336 501.226,23.276 C499.246,20.216 495.916,18.686 491.236,18.686 C488.716,18.686 486.674,19.167 485.116,20.126 C483.555,21.088 482.295,22.286 481.336,23.726 C480.374,25.287 479.716,27.056 479.356,29.036 C478.996,31.016 478.816,33.086 478.816,35.246 C478.816,37.766 478.906,39.867 479.086,41.546 C479.266,43.228 479.716,44.727 480.436,46.046 ZM470.272,224.786 C472.910,227.548 474.980,230.816 476.482,234.596 C477.981,238.376 478.732,242.488 478.732,246.926 L478.732,254.126 L460.372,254.126 L460.372,248.006 C460.372,244.406 459.351,241.287 457.312,238.646 C455.270,236.008 452.511,234.686 449.032,234.686 C444.470,234.686 441.441,236.098 439.942,238.916 C438.440,241.737 437.692,245.306 437.692,249.626 L437.692,315.146 C437.692,318.867 438.502,321.986 440.122,324.506 C441.742,327.026 444.650,328.286 448.852,328.286 C450.050,328.286 451.341,328.078 452.722,327.656 C454.100,327.237 455.391,326.548 456.592,325.586 C457.672,324.627 458.572,323.308 459.292,321.626 C460.012,319.947 460.372,317.846 460.372,315.326 L460.372,309.026 L478.732,309.026 L478.732,316.946 C478.732,320.906 477.981,324.658 476.482,328.196 C474.980,331.737 472.910,334.887 470.272,337.646 C467.631,340.408 464.540,342.596 461.002,344.216 C457.461,345.836 453.650,346.646 449.572,346.646 C446.090,346.646 442.552,346.165 438.952,345.206 C435.352,344.247 432.112,342.568 429.232,340.166 C426.352,337.767 423.981,334.676 422.122,330.896 C420.260,327.116 419.332,322.287 419.332,316.406 L419.332,245.846 C419.332,241.647 420.052,237.746 421.492,234.146 C422.932,230.546 424.971,227.427 427.612,224.786 C430.250,222.148 433.400,220.078 437.062,218.576 C440.721,217.077 444.771,216.326 449.212,216.326 C457.852,216.326 464.872,219.147 470.272,224.786 ZM437.081,648.326 C440.800,648.326 444.490,648.987 448.151,650.306 C451.810,651.628 455.140,653.546 458.141,656.066 C461.021,658.707 463.361,662.006 465.161,665.966 C466.961,669.926 467.861,674.488 467.861,679.646 L467.861,747.326 C467.861,752.726 466.961,757.347 465.161,761.186 C463.361,765.028 461.021,768.206 458.141,770.726 C455.140,773.367 451.810,775.347 448.151,776.666 C444.490,777.985 440.800,778.646 437.081,778.646 C433.360,778.646 429.670,777.985 426.011,776.666 C422.350,775.347 419.081,773.367 416.201,770.726 C413.200,768.206 410.801,765.028 409.001,761.186 C407.201,757.347 406.301,752.726 406.301,747.326 L406.301,679.646 C406.301,674.488 407.201,669.926 409.001,665.966 C410.801,662.006 413.200,658.707 416.201,656.066 C419.081,653.546 422.350,651.628 426.011,650.306 C429.670,648.987 433.360,648.326 437.081,648.326 ZM424.661,747.326 C424.661,751.767 425.890,755.038 428.351,757.136 C430.810,759.237 433.720,760.286 437.081,760.286 C440.440,760.286 443.350,759.237 445.811,757.136 C448.270,755.038 449.501,751.767 449.501,747.326 L449.501,679.646 C449.501,675.208 448.270,671.937 445.811,669.836 C443.350,667.738 440.440,666.686 437.081,666.686 C433.720,666.686 430.810,667.738 428.351,669.836 C425.890,671.937 424.661,675.208 424.661,679.646 L424.661,747.326 ZM384.232,217.406 L402.592,217.406 L402.592,345.566 L384.232,345.566 L384.232,217.406 ZM384.880,121.826 C382.118,124.588 378.940,126.748 375.340,128.306 C371.740,129.864 367.898,130.646 363.820,130.646 C359.739,130.646 355.928,129.864 352.390,128.306 C348.849,126.748 345.699,124.588 342.940,121.826 C340.178,119.067 338.018,115.917 336.460,112.376 C334.899,108.838 334.120,104.968 334.120,100.766 L334.120,1.406 L352.480,1.406 L352.480,98.966 C352.480,103.528 353.560,106.886 355.720,109.046 C357.880,111.206 360.580,112.286 363.820,112.286 C367.060,112.286 369.760,111.206 371.920,109.046 C374.080,106.886 375.160,103.528 375.160,98.966 L375.160,1.406 L393.520,1.406 L393.520,100.766 C393.520,104.968 392.769,108.838 391.270,112.376 C389.768,115.917 387.639,119.067 384.880,121.826 ZM348.052,217.406 L366.412,217.406 L366.412,345.566 L348.052,345.566 L348.052,288.506 L325.372,288.506 L325.372,345.566 L307.012,345.566 L307.012,217.406 L325.372,217.406 L325.372,272.306 L348.052,272.306 L348.052,217.406 ZM358.754,666.686 L322.394,666.686 L322.394,704.306 L354.074,704.306 L354.074,721.586 L322.394,721.586 L322.394,759.206 L358.754,759.206 L358.754,777.566 L304.034,777.566 L304.034,649.406 L358.754,649.406 L358.754,666.686 ZM358.672,882.686 L337.432,882.686 L337.432,993.566 L319.072,993.566 L319.072,882.686 L297.832,882.686 L297.832,865.406 L358.672,865.406 L358.672,882.686 ZM288.112,282.206 C285.592,286.408 282.231,289.676 278.032,292.016 C273.830,294.356 268.312,295.526 261.472,295.526 L252.112,295.526 L252.112,345.566 L233.752,345.566 L233.752,217.406 L261.292,217.406 C266.332,217.406 270.770,218.067 274.612,219.386 C278.451,220.708 281.930,223.048 285.052,226.406 C288.171,229.767 290.331,233.696 291.532,238.196 C292.730,242.696 293.332,248.788 293.332,256.466 C293.332,262.226 293.000,267.086 292.342,271.046 C291.681,275.006 290.272,278.727 288.112,282.206 ZM275.872,248.096 C275.751,245.396 275.211,243.028 274.252,240.986 C273.290,238.947 271.850,237.386 269.932,236.306 C268.011,235.226 265.252,234.686 261.652,234.686 L252.112,234.686 L252.112,278.246 L260.932,278.246 C264.650,278.246 267.530,277.706 269.572,276.626 C271.611,275.546 273.110,274.047 274.072,272.126 C275.031,270.326 275.602,268.107 275.782,265.466 C275.962,262.828 276.052,259.886 276.052,256.646 C276.052,253.648 275.990,250.796 275.872,248.096 ZM215.164,1.406 L233.524,1.406 L233.524,111.206 L269.884,111.206 L269.884,129.566 L215.164,129.566 L215.164,1.406 ZM206.392,345.566 L200.992,318.026 L175.972,318.026 L170.572,345.566 L152.212,345.566 L180.832,217.406 L196.132,217.406 L224.752,345.566 L206.392,345.566 ZM188.572,254.306 L188.212,254.306 L179.212,300.746 L197.572,300.746 L188.572,254.306 ZM96.208,1.406 L114.568,1.406 L114.568,111.206 L150.928,111.206 L150.928,129.566 L96.208,129.566 L96.208,1.406 ZM145.732,255.026 C145.732,262.586 144.562,269.007 142.222,274.286 C139.882,279.568 135.770,283.826 129.892,287.066 L149.692,345.566 L130.252,345.566 L113.152,290.846 L102.172,290.846 L102.172,345.566 L83.812,345.566 L83.812,217.406 L113.332,217.406 C134.932,217.406 145.732,229.947 145.732,255.026 ZM102.172,234.686 L102.172,274.646 L112.612,274.646 C115.852,274.646 118.431,274.196 120.352,273.296 C122.270,272.396 123.772,271.108 124.852,269.426 C125.811,267.747 126.472,265.677 126.832,263.216 C127.192,260.758 127.372,257.906 127.372,254.666 C127.372,251.426 127.192,248.577 126.832,246.116 C126.472,243.658 125.752,241.526 124.672,239.726 C122.391,236.368 118.071,234.686 111.712,234.686 L102.172,234.686 ZM135.652,903.026 C135.652,910.586 134.482,917.007 132.142,922.286 C129.802,927.568 125.690,931.826 119.812,935.066 L139.612,993.566 L120.172,993.566 L103.072,938.846 L92.092,938.846 L92.092,993.566 L73.732,993.566 L73.732,865.406 L103.252,865.406 C124.852,865.406 135.652,877.947 135.652,903.026 ZM92.092,882.686 L92.092,922.646 L102.532,922.646 C105.772,922.646 108.351,922.196 110.272,921.296 C112.190,920.396 113.692,919.108 114.772,917.426 C115.731,915.747 116.392,913.677 116.752,911.216 C117.112,908.758 117.292,905.906 117.292,902.666 C117.292,899.426 117.112,896.577 116.752,894.116 C116.392,891.658 115.672,889.526 114.592,887.726 C112.311,884.368 107.991,882.686 101.632,882.686 L92.092,882.686 ZM26.932,777.566 L0.832,649.406 L20.272,649.406 L34.852,738.866 L35.212,738.866 L49.972,649.406 L69.412,649.406 L43.132,777.566 L26.932,777.566 ZM7.132,561.566 L7.132,433.406 L34.672,433.406 C39.712,433.406 44.150,434.067 47.992,435.386 C51.831,436.708 55.310,439.048 58.432,442.406 C61.551,445.767 63.711,449.696 64.912,454.196 C66.110,458.696 66.712,464.788 66.712,472.466 C66.712,478.226 66.380,483.086 65.722,487.046 C65.061,491.006 63.652,494.727 61.492,498.206 C58.972,502.408 55.611,505.676 51.412,508.016 C47.210,510.356 41.692,511.526 34.852,511.526 L25.492,511.526 L25.492,561.566 L7.132,561.566 ZM34.312,494.246 C38.030,494.246 40.910,493.706 42.952,492.626 C44.991,491.546 46.490,490.047 47.452,488.126 C48.411,486.326 48.982,484.107 49.162,481.466 C49.342,478.828 49.432,475.886 49.432,472.646 C49.432,469.648 49.370,466.796 49.252,464.096 C49.131,461.396 48.591,459.028 47.632,456.986 C46.670,454.947 45.230,453.386 43.312,452.306 C41.391,451.226 38.632,450.686 35.032,450.686 L25.492,450.686 L25.492,494.246 L34.312,494.246 ZM57.892,338.726 C54.891,341.367 51.561,343.347 47.902,344.666 C44.240,345.985 40.550,346.646 36.832,346.646 C33.111,346.646 29.421,345.985 25.762,344.666 C22.100,343.347 18.832,341.367 15.952,338.726 C12.951,336.206 10.552,333.028 8.752,329.186 C6.952,325.347 6.052,320.726 6.052,315.326 L6.052,247.646 C6.052,242.488 6.952,237.926 8.752,233.966 C10.552,230.006 12.951,226.707 15.952,224.066 C18.832,221.546 22.100,219.628 25.762,218.306 C29.421,216.987 33.111,216.326 36.832,216.326 C40.550,216.326 44.240,216.987 47.902,218.306 C51.561,219.628 54.891,221.546 57.892,224.066 C60.772,226.707 63.112,230.006 64.912,233.966 C66.712,237.926 67.612,242.488 67.612,247.646 L67.612,254.126 L49.252,254.126 L49.252,247.646 C49.252,243.208 48.020,239.937 45.562,237.836 C43.101,235.738 40.190,234.686 36.832,234.686 C33.471,234.686 30.560,235.738 28.102,237.836 C25.641,239.937 24.412,243.208 24.412,247.646 L24.412,315.326 C24.412,319.767 25.641,323.038 28.102,325.136 C30.560,327.237 33.471,328.286 36.832,328.286 C40.190,328.286 43.101,327.237 45.562,325.136 C48.020,323.038 49.252,319.767 49.252,315.326 L49.252,291.206 L34.672,291.206 L34.672,275.006 L67.612,275.006 L67.612,315.326 C67.612,320.726 66.712,325.347 64.912,329.186 C63.112,333.028 60.772,336.206 57.892,338.726 ZM7.672,1.406 L26.032,1.406 L26.032,129.566 L7.672,129.566 L7.672,1.406 ZM61.852,882.686 L25.492,882.686 L25.492,921.566 L57.172,921.566 L57.172,938.846 L25.492,938.846 L25.492,993.566 L7.132,993.566 L7.132,865.406 L61.852,865.406 L61.852,882.686 ZM136.040,777.566 L117.680,777.566 L117.680,649.406 L136.040,649.406 L136.040,777.566 ZM173.921,433.406 L173.921,561.566 L155.561,561.566 L155.561,504.506 L132.881,504.506 L132.881,561.566 L114.521,561.566 L114.521,433.406 L132.881,433.406 L132.881,488.306 L155.561,488.306 L155.561,433.406 L173.921,433.406 ZM159.232,872.066 C162.112,869.546 165.380,867.628 169.042,866.306 C172.701,864.987 176.391,864.326 180.112,864.326 C183.830,864.326 187.520,864.987 191.182,866.306 C194.841,867.628 198.171,869.546 201.172,872.066 C204.052,874.707 206.392,878.006 208.192,881.966 C209.992,885.926 210.892,890.488 210.892,895.646 L210.892,963.326 C210.892,968.726 209.992,973.347 208.192,977.186 C206.392,981.028 204.052,984.206 201.172,986.726 C198.171,989.367 194.841,991.347 191.182,992.666 C187.520,993.985 183.830,994.646 180.112,994.646 C176.391,994.646 172.701,993.985 169.042,992.666 C165.380,991.347 162.112,989.367 159.232,986.726 C156.231,984.206 153.832,981.028 152.032,977.186 C150.232,973.347 149.332,968.726 149.332,963.326 L149.332,895.646 C149.332,890.488 150.232,885.926 152.032,881.966 C153.832,878.006 156.231,874.707 159.232,872.066 ZM167.692,963.326 C167.692,967.767 168.921,971.038 171.382,973.136 C173.840,975.237 176.751,976.286 180.112,976.286 C183.470,976.286 186.381,975.237 188.842,973.136 C191.300,971.038 192.532,967.767 192.532,963.326 L192.532,895.646 C192.532,891.208 191.300,887.937 188.842,885.836 C186.381,883.738 183.470,882.686 180.112,882.686 C176.751,882.686 173.840,883.738 171.382,885.836 C168.921,887.937 167.692,891.208 167.692,895.646 L167.692,963.326 ZM190.607,649.406 L217.787,649.406 C228.345,649.406 236.355,652.286 241.817,658.046 C247.276,663.806 250.007,671.968 250.007,682.526 L250.007,742.466 C250.007,754.467 247.096,763.318 241.277,769.016 C235.455,774.717 227.085,777.566 216.167,777.566 L190.607,777.566 L190.607,649.406 ZM208.967,760.286 L217.427,760.286 C222.585,760.286 226.247,758.998 228.407,756.416 C230.567,753.837 231.647,749.787 231.647,744.266 L231.647,682.526 C231.647,677.486 230.626,673.588 228.587,670.826 C226.545,668.067 222.827,666.686 217.427,666.686 L208.967,666.686 L208.967,760.286 ZM266.101,560.666 C262.439,561.985 258.749,562.646 255.030,562.646 C251.310,562.646 247.620,561.985 243.961,560.666 C240.299,559.347 237.030,557.367 234.151,554.726 C231.150,552.206 228.751,549.028 226.951,545.186 C225.151,541.347 224.251,536.726 224.251,531.326 L224.251,463.646 C224.251,458.488 225.151,453.926 226.951,449.966 C228.751,446.006 231.150,442.707 234.151,440.066 C237.030,437.546 240.299,435.628 243.961,434.306 C247.620,432.987 251.310,432.326 255.030,432.326 C258.749,432.326 262.439,432.987 266.101,434.306 C269.760,435.628 273.090,437.546 276.091,440.066 C278.970,442.707 281.311,446.006 283.111,449.966 C284.911,453.926 285.811,458.488 285.811,463.646 L285.811,531.326 C285.811,536.726 284.911,541.347 283.111,545.186 C281.311,549.028 278.970,552.206 276.091,554.726 C273.090,557.367 269.760,559.347 266.101,560.666 ZM267.451,463.646 C267.451,459.208 266.219,455.937 263.761,453.836 C261.300,451.738 258.389,450.686 255.030,450.686 C251.670,450.686 248.759,451.738 246.301,453.836 C243.840,455.937 242.611,459.208 242.611,463.646 L242.611,531.326 C242.611,535.767 243.840,539.038 246.301,541.136 C248.759,543.237 251.670,544.286 255.030,544.286 C258.389,544.286 261.300,543.237 263.761,541.136 C266.219,539.038 267.451,535.767 267.451,531.326 L267.451,463.646 ZM271.732,942.626 L272.092,942.626 L272.092,865.406 L290.452,865.406 L290.452,993.566 L273.172,993.566 L245.092,916.526 L244.732,916.526 L244.732,993.566 L226.372,993.566 L226.372,865.406 L244.012,865.406 L271.732,942.626 ZM346.040,561.566 L346.040,450.686 L324.800,450.686 L324.800,433.406 L385.640,433.406 L385.640,450.686 L364.400,450.686 L364.400,561.566 L346.040,561.566 ZM409.072,952.886 L354.892,952.886 L354.892,934.526 L409.072,934.526 L409.072,952.886 ZM480.352,882.686 L443.992,882.686 L443.992,920.306 L475.672,920.306 L475.672,937.586 L443.992,937.586 L443.992,975.206 L480.352,975.206 L480.352,993.566 L425.632,993.566 L425.632,865.406 L480.352,865.406 L480.352,882.686 ZM466.479,560.666 C462.817,561.985 459.127,562.646 455.409,562.646 C451.688,562.646 447.998,561.985 444.339,560.666 C440.677,559.347 437.409,557.367 434.529,554.726 C431.528,552.206 429.129,549.028 427.329,545.186 C425.529,541.347 424.629,536.726 424.629,531.326 L424.629,463.646 C424.629,458.488 425.529,453.926 427.329,449.966 C429.129,446.006 431.528,442.707 434.529,440.066 C437.409,437.546 440.677,435.628 444.339,434.306 C447.998,432.987 451.688,432.326 455.409,432.326 C459.127,432.326 462.817,432.987 466.479,434.306 C470.138,435.628 473.468,437.546 476.469,440.066 C479.349,442.707 481.689,446.006 483.489,449.966 C485.289,453.926 486.189,458.488 486.189,463.646 L486.189,531.326 C486.189,536.726 485.289,541.347 483.489,545.186 C481.689,549.028 479.349,552.206 476.469,554.726 C473.468,557.367 470.138,559.347 466.479,560.666 ZM467.829,463.646 C467.829,459.208 466.597,455.937 464.139,453.836 C461.678,451.738 458.767,450.686 455.409,450.686 C452.048,450.686 449.137,451.738 446.679,453.836 C444.218,455.937 442.989,459.208 442.989,463.646 L442.989,531.326 C442.989,535.767 444.218,539.038 446.679,541.136 C449.137,543.237 452.048,544.286 455.409,544.286 C458.767,544.286 461.678,543.237 464.139,541.136 C466.597,539.038 467.829,535.767 467.829,531.326 L467.829,463.646 ZM536.872,942.626 L537.232,942.626 L537.232,865.406 L555.592,865.406 L555.592,993.566 L538.312,993.566 L510.232,916.526 L509.872,916.526 L509.872,993.566 L491.512,993.566 L491.512,865.406 L509.152,865.406 L536.872,942.626 ZM623.362,874.046 C628.821,879.806 631.552,887.968 631.552,898.526 L631.552,958.466 C631.552,970.467 628.641,979.318 622.822,985.016 C617.000,990.717 608.631,993.566 597.712,993.566 L572.152,993.566 L572.152,865.406 L599.332,865.406 C609.891,865.406 617.900,868.286 623.362,874.046 ZM590.512,882.686 L590.512,976.286 L598.972,976.286 C604.131,976.286 607.792,974.998 609.952,972.416 C612.112,969.837 613.192,965.787 613.192,960.266 L613.192,898.526 C613.192,893.486 612.171,889.588 610.132,886.826 C608.091,884.067 604.372,882.686 598.972,882.686 L590.512,882.686 ZM696.156,687.026 C696.156,694.586 694.986,701.007 692.646,706.286 C690.306,711.568 686.194,715.826 680.316,719.066 L700.116,777.566 L680.676,777.566 L663.576,722.846 L652.596,722.846 L652.596,777.566 L634.236,777.566 L634.236,649.406 L663.756,649.406 C685.356,649.406 696.156,661.947 696.156,687.026 ZM652.596,666.686 L652.596,706.646 L663.036,706.646 C666.276,706.646 668.855,706.196 670.776,705.296 C672.694,704.396 674.196,703.108 675.276,701.426 C676.235,699.747 676.896,697.677 677.256,695.216 C677.616,692.758 677.796,689.906 677.796,686.666 C677.796,683.426 677.616,680.577 677.256,678.116 C676.896,675.658 676.176,673.526 675.096,671.726 C672.815,668.368 668.495,666.686 662.136,666.686 L652.596,666.686 ZM759.382,874.046 C764.841,879.806 767.572,887.968 767.572,898.526 L767.572,958.466 C767.572,970.467 764.661,979.318 758.842,985.016 C753.020,990.717 744.650,993.566 733.732,993.566 L708.172,993.566 L708.172,865.406 L735.352,865.406 C745.910,865.406 753.920,868.286 759.382,874.046 ZM726.532,882.686 L726.532,976.286 L734.992,976.286 C740.150,976.286 743.812,974.998 745.972,972.416 C748.132,969.837 749.212,965.787 749.212,960.266 L749.212,898.526 C749.212,893.486 748.191,889.588 746.152,886.826 C744.110,884.067 740.392,882.686 734.992,882.686 L726.532,882.686 ZM763.143,750.026 L757.743,777.566 L739.383,777.566 L768.003,649.406 L783.303,649.406 L811.923,777.566 L793.563,777.566 L788.163,750.026 L763.143,750.026 ZM775.743,686.306 L775.383,686.306 L766.383,732.746 L784.743,732.746 L775.743,686.306 ZM839.572,882.686 L803.212,882.686 L803.212,920.306 L834.892,920.306 L834.892,937.586 L803.212,937.586 L803.212,975.206 L839.572,975.206 L839.572,993.566 L784.852,993.566 L784.852,865.406 L839.572,865.406 L839.572,882.686 ZM866.212,963.146 C866.212,966.507 867.202,969.536 869.182,972.236 C871.162,974.936 874.492,976.286 879.172,976.286 C882.291,976.286 884.721,975.836 886.462,974.936 C888.200,974.036 889.550,972.748 890.512,971.066 C891.471,969.387 892.042,967.376 892.222,965.036 C892.402,962.696 892.492,960.086 892.492,957.206 C892.492,953.848 892.371,951.086 892.132,948.926 C891.890,946.766 891.412,945.028 890.692,943.706 C889.851,942.387 888.740,941.307 887.362,940.466 C885.981,939.628 884.150,938.728 881.872,937.766 L868.732,932.366 C860.812,929.126 855.502,924.837 852.802,919.496 C850.102,914.158 848.752,907.467 848.752,899.426 C848.752,894.628 849.410,890.066 850.732,885.746 C852.051,881.426 854.031,877.708 856.672,874.586 C859.192,871.467 862.401,868.978 866.302,867.116 C870.200,865.257 874.852,864.326 880.252,864.326 C884.811,864.326 888.982,865.167 892.762,866.846 C896.542,868.528 899.810,870.747 902.572,873.506 C908.090,879.266 910.852,885.867 910.852,893.306 L910.852,902.306 L892.492,902.306 L892.492,898.166 C892.492,893.967 891.502,890.336 889.522,887.276 C887.542,884.216 884.212,882.686 879.532,882.686 C877.012,882.686 874.970,883.167 873.412,884.126 C871.851,885.088 870.591,886.286 869.632,887.726 C868.670,889.287 868.012,891.056 867.652,893.036 C867.292,895.016 867.112,897.086 867.112,899.246 C867.112,901.766 867.202,903.867 867.382,905.546 C867.562,907.228 868.012,908.727 868.732,910.046 C869.452,911.368 870.501,912.507 871.882,913.466 C873.260,914.428 875.150,915.387 877.552,916.346 L891.592,921.926 C895.670,923.487 898.972,925.318 901.492,927.416 C904.012,929.517 905.992,931.947 907.432,934.706 C908.751,937.586 909.651,940.857 910.132,944.516 C910.610,948.178 910.852,952.346 910.852,957.026 C910.852,962.426 910.312,967.438 909.232,972.056 C908.152,976.677 906.411,980.606 904.012,983.846 C901.492,987.207 898.190,989.848 894.112,991.766 C890.031,993.685 885.050,994.646 879.172,994.646 C874.731,994.646 870.591,993.864 866.752,992.306 C862.910,990.748 859.611,988.588 856.852,985.826 C854.090,983.067 851.902,979.858 850.282,976.196 C848.662,972.537 847.852,968.546 847.852,964.226 L847.852,957.386 L866.212,957.386 L866.212,963.146 ZM901.950,724.016 C897.749,726.356 892.231,727.526 885.390,727.526 L876.031,727.526 L876.031,777.566 L857.671,777.566 L857.671,649.406 L885.211,649.406 C890.250,649.406 894.689,650.067 898.531,651.386 C902.370,652.708 905.849,655.048 908.971,658.406 C912.090,661.767 914.250,665.696 915.450,670.196 C916.649,674.696 917.250,680.788 917.250,688.466 C917.250,694.226 916.919,699.086 916.261,703.046 C915.600,707.006 914.190,710.727 912.031,714.206 C909.511,718.408 906.150,721.676 901.950,724.016 ZM899.790,680.096 C899.670,677.396 899.130,675.028 898.171,672.986 C897.209,670.947 895.769,669.386 893.850,668.306 C891.930,667.226 889.171,666.686 885.571,666.686 L876.031,666.686 L876.031,710.246 L884.850,710.246 C888.569,710.246 891.449,709.706 893.490,708.626 C895.530,707.546 897.029,706.047 897.990,704.126 C898.950,702.326 899.521,700.107 899.700,697.466 C899.881,694.828 899.971,691.886 899.971,688.646 C899.971,685.648 899.909,682.796 899.790,680.096 ZM943.432,993.566 L925.072,993.566 L925.072,865.406 L943.432,865.406 L943.432,993.566 ZM970.072,872.066 C972.952,869.546 976.220,867.628 979.882,866.306 C983.541,864.987 987.231,864.326 990.952,864.326 C994.670,864.326 998.360,864.987 1002.022,866.306 C1005.681,867.628 1009.011,869.546 1012.012,872.066 C1014.892,874.707 1017.232,878.006 1019.032,881.966 C1020.832,885.926 1021.732,890.488 1021.732,895.646 L1021.732,902.126 L1003.372,902.126 L1003.372,895.646 C1003.372,891.208 1002.140,887.937 999.682,885.836 C997.221,883.738 994.310,882.686 990.952,882.686 C987.591,882.686 984.680,883.738 982.222,885.836 C979.761,887.937 978.532,891.208 978.532,895.646 L978.532,963.326 C978.532,967.767 979.761,971.038 982.222,973.136 C984.680,975.237 987.591,976.286 990.952,976.286 C994.310,976.286 997.221,975.237 999.682,973.136 C1002.140,971.038 1003.372,967.767 1003.372,963.326 L1003.372,939.206 L988.792,939.206 L988.792,923.006 L1021.732,923.006 L1021.732,963.326 C1021.732,968.726 1020.832,973.347 1019.032,977.186 C1017.232,981.028 1014.892,984.206 1012.012,986.726 C1009.011,989.367 1005.681,991.347 1002.022,992.666 C998.360,993.985 994.670,994.646 990.952,994.646 C987.231,994.646 983.541,993.985 979.882,992.666 C976.220,991.347 972.952,989.367 970.072,986.726 C967.071,984.206 964.672,981.028 962.872,977.186 C961.072,973.347 960.172,968.726 960.172,963.326 L960.172,895.646 C960.172,890.488 961.072,885.926 962.872,881.966 C964.672,878.006 967.071,874.707 970.072,872.066 ZM1027.078,649.406 L1027.078,777.566 L1008.718,777.566 L1008.718,720.506 L986.038,720.506 L986.038,777.566 L967.678,777.566 L967.678,649.406 L986.038,649.406 L986.038,704.306 L1008.718,704.306 L1008.718,649.406 L1027.078,649.406 ZM1246.372,687.026 C1246.372,694.586 1245.202,701.007 1242.862,706.286 C1240.522,711.568 1236.410,715.826 1230.532,719.066 L1250.332,777.566 L1230.892,777.566 L1213.792,722.846 L1202.812,722.846 L1202.812,777.566 L1184.452,777.566 L1184.452,649.406 L1213.972,649.406 C1235.572,649.406 1246.372,661.947 1246.372,687.026 ZM1202.812,666.686 L1202.812,706.646 L1213.252,706.646 C1216.492,706.646 1219.071,706.196 1220.992,705.296 C1222.910,704.396 1224.412,703.108 1225.492,701.426 C1226.451,699.747 1227.112,697.677 1227.472,695.216 C1227.832,692.758 1228.012,689.906 1228.012,686.666 C1228.012,683.426 1227.832,680.577 1227.472,678.116 C1227.112,675.658 1226.392,673.526 1225.312,671.726 C1223.031,668.368 1218.711,666.686 1212.352,666.686 L1202.812,666.686 ZM1246.372,903.026 C1246.372,910.586 1245.202,917.007 1242.862,922.286 C1240.522,927.568 1236.410,931.826 1230.532,935.066 L1250.332,993.566 L1230.892,993.566 L1213.792,938.846 L1202.812,938.846 L1202.812,993.566 L1184.452,993.566 L1184.452,865.406 L1213.972,865.406 C1235.572,865.406 1246.372,877.947 1246.372,903.026 ZM1202.812,882.686 L1202.812,922.646 L1213.252,922.646 C1216.492,922.646 1219.071,922.196 1220.992,921.296 C1222.910,920.396 1224.412,919.108 1225.492,917.426 C1226.451,915.747 1227.112,913.677 1227.472,911.216 C1227.832,908.758 1228.012,905.906 1228.012,902.666 C1228.012,899.426 1227.832,896.577 1227.472,894.116 C1227.112,891.658 1226.392,889.526 1225.312,887.726 C1223.031,884.368 1218.711,882.686 1212.352,882.686 L1202.812,882.686 Z"/>
</svg>