<?xml version="1.0" encoding="UTF-8" standalone="no"?>
<!DOCTYPE svg PUBLIC "-//W3C//DTD SVG 1.1//EN" "http://www.w3.org/Graphics/SVG/1.1/DTD/svg11.dtd">
<svg width="100%" height="100%" viewBox="0 0 28 46" version="1.1" xmlns="http://www.w3.org/2000/svg" xmlns:xlink="http://www.w3.org/1999/xlink" xml:space="preserve" xmlns:serif="http://www.serif.com/" style="fill-rule:evenodd;clip-rule:evenodd;stroke-linejoin:round;stroke-miterlimit:2;">
    <g transform="matrix(1,0,0,1,-1285.46,-139.561)">
        <g transform="matrix(-1,0,0,1,2174.85,-174.973)">
            <path d="M881.904,346.919C881.904,351.899 878.397,353.052 875.712,353.035C872.559,353.014 869.808,352.013 869.808,346.919L869.664,327.447C869.664,325.575 869.025,320.823 875.568,320.823C881.105,320.823 881.904,325.575 881.904,327.447L881.904,337.135L889.248,337.135L889.248,327.447C889.248,323.415 887.52,320.391 885.072,318.087C882.48,315.783 878.768,314.534 875.712,314.534C872.657,314.609 869.015,314.823 865.344,318.087C863.609,319.629 862.176,321.645 862.176,327.447L862.32,347.063C862.32,355.224 864.93,359.735 875.856,359.735C880.063,359.735 889.392,357.79 889.392,347.063L889.392,344.231L881.904,344.231L881.904,346.919Z" style="fill-rule:nonzero;"/>
        </g>
    </g>
</svg>
