<?xml version="1.0" encoding="UTF-8" standalone="no"?>
<!DOCTYPE svg PUBLIC "-//W3C//DTD SVG 1.1//EN" "http://www.w3.org/Graphics/SVG/1.1/DTD/svg11.dtd">
<svg width="100%" height="100%" viewBox="0 0 1743 296" version="1.1" xmlns="http://www.w3.org/2000/svg" xmlns:xlink="http://www.w3.org/1999/xlink" xml:space="preserve" xmlns:serif="http://www.serif.com/" style="fill-rule:evenodd;clip-rule:evenodd;stroke-linejoin:round;stroke-miterlimit:2;">
    <g transform="matrix(1,0,0,1,-328.858,-252.298)">
        <g id="Logo" transform="matrix(1,0,0,1,0,20)">
            <path d="M1242.26,304.299C1240.11,304.603 1238.1,305.117 1236.09,305.889C1232.77,306.998 1230.27,308.662 1227.78,310.603C1225.28,312.821 1223.89,315.316 1222.78,318.366C1221.4,321.139 1221.67,324.743 1221.67,328.625L1221.67,503.302C1221.67,507.184 1221.4,510.511 1222.78,513.561C1223.89,516.334 1225.28,518.829 1227.78,521.047C1230.27,523.265 1232.77,524.929 1236.09,526.038C1239.7,527.147 1243.3,527.702 1247.74,527.702C1256.61,527.702 1260.77,525.484 1265.76,521.047C1270.47,516.888 1273.8,511.066 1273.8,503.302L1273.8,479.712C1294.39,443.434 1288.44,412.279 1273.8,377.875L1273.8,328.625C1273.8,320.862 1270.47,315.039 1265.76,310.603C1261.32,306.653 1257.53,304.461 1250.49,304.029C1253.02,273.254 1272.33,245.786 1287.35,232.298C1261.77,253.831 1245.73,278.426 1242.26,304.299ZM360.25,393.68C360.25,389.648 358.81,386.48 356.362,384.176C353.77,381.872 350.602,380.72 345.994,380.72C343.834,380.72 341.53,381.152 339.658,381.728C337.93,382.304 336.346,383.168 335.05,384.32C333.898,385.328 332.89,386.768 332.17,388.208C331.45,389.792 331.162,391.664 331.162,393.68C331.162,399.152 331.018,404.192 331.594,408.656C332.17,412.976 333.034,417.152 334.042,420.896C334.906,424.496 336.058,427.952 337.354,431.12C338.65,434.288 341.242,440.48 341.242,440.48C342.538,443.504 343.546,446.528 344.842,449.84C346.426,454.304 347.722,459.344 348.73,464.816C349.882,470.288 350.314,476.768 350.314,484.112C350.314,485.984 349.882,487.568 348.73,488.864C347.722,490.16 345.562,490.736 343.402,490.736C341.242,490.736 339.082,490.16 337.93,488.864C336.922,487.568 336.346,485.984 336.346,484.112L336.346,481.072L328.858,481.072L328.858,484.112C328.858,488.144 330.298,491.168 332.746,493.472C335.338,495.776 338.506,496.928 343.114,496.928C345.418,496.928 347.578,496.64 349.45,496.064C351.178,495.344 352.762,494.48 354.058,493.472C355.21,492.32 356.218,491.024 356.938,489.44C357.658,487.856 357.946,486.128 357.946,484.112C357.946,478.496 358.09,473.456 357.514,469.136C356.938,464.672 356.074,460.64 355.066,456.896C354.202,453.152 353.05,449.696 351.754,446.528C350.89,444.512 350.17,442.64 349.45,440.48C347.578,436.592 345.85,432.272 344.266,427.808C342.682,423.344 341.386,418.304 340.378,412.832C339.226,407.36 338.794,400.88 338.794,393.68C338.794,391.664 339.226,390.08 340.378,388.928C341.386,387.632 343.546,386.912 345.706,386.912C347.866,386.912 350.026,387.632 351.178,388.928C352.186,390.08 352.906,391.664 352.906,393.68L352.906,395.576L360.25,395.576L360.25,393.68ZM2071.13,484.112C2071.13,486.128 2071.27,487.856 2070.55,489.44C2069.98,490.88 2069.26,492.176 2067.96,493.328C2066.81,494.48 2065.37,495.344 2063.64,495.92C2061.91,496.496 2059.9,496.784 2057.59,496.784C2052.99,496.784 2050.83,495.632 2048.23,493.328C2045.79,491.168 2044.06,488.144 2044.06,484.112L2044.06,444.08L2051.55,444.08L2051.55,483.968C2051.55,485.84 2051.83,487.424 2052.99,488.72C2054.14,490.016 2055.58,490.592 2057.74,490.592C2059.9,490.592 2061.19,490.016 2062.2,488.72C2063.35,487.424 2063.64,485.84 2063.64,483.968L2063.64,381.008L2071.13,381.008L2071.13,484.112ZM1939.35,488.876L1939.35,496.207L1932.02,496.208L1932.02,488.877L1939.35,488.876ZM1712.12,488.876L1712.12,496.207L1704.79,496.208L1704.79,488.877L1712.12,488.876ZM1484.89,488.876L1484.89,496.207L1477.56,496.208L1477.56,488.877L1484.89,488.876ZM1369.69,488.876L1369.69,496.207L1362.36,496.208L1362.36,488.877L1369.69,488.876ZM1382.23,453.872L1369.56,380.864L1362.36,380.864L1362.36,476.48L1378.81,476.48L1382.23,496.208L1389.43,496.208L1389.43,380.864L1382.23,380.864L1382.23,453.872ZM1616.67,425.504L1616.67,392.816C1616.67,388.784 1614.94,385.76 1612.49,383.456C1609.9,381.152 1607.74,380 1603.13,380C1600.83,380 1598.95,380.432 1597.08,381.008C1595.35,381.584 1594.06,382.448 1592.76,383.456C1591.47,384.608 1590.75,385.904 1590.17,387.488C1589.45,388.928 1589.59,390.8 1589.59,392.816L1589.59,483.536C1589.59,485.552 1589.45,487.28 1590.17,488.864C1590.75,490.304 1591.47,491.6 1592.76,492.752C1594.06,493.904 1595.35,494.768 1597.08,495.344C1598.95,495.92 1600.83,496.208 1603.13,496.208C1607.74,496.208 1609.9,495.056 1612.49,492.752C1614.94,490.592 1616.67,487.568 1616.67,483.536L1616.67,441.344L1604.71,441.344L1604.71,448.688L1609.32,448.688L1609.32,483.392C1609.32,485.264 1608.89,486.848 1607.74,488.144C1606.59,489.44 1605.15,490.016 1602.99,490.016C1600.83,490.016 1599.53,489.44 1598.52,488.144C1597.37,486.848 1597.08,485.264 1597.08,483.392L1597.08,392.816C1597.08,390.944 1597.37,389.36 1598.52,388.208C1599.53,386.912 1600.83,386.192 1602.99,386.192C1605.15,386.192 1606.59,386.912 1607.74,388.208C1608.89,389.36 1609.32,390.944 1609.32,392.816L1609.32,425.504L1616.67,425.504ZM1843.9,393.824C1843.9,389.792 1842.46,386.624 1840.01,384.464C1837.42,382.16 1834.39,381.008 1829.64,381.008L1816.83,381.008L1816.83,476.48L1824.03,476.48L1824.03,443.936L1829.93,443.936C1831.95,444.08 1833.67,444.656 1834.83,445.952C1835.83,447.104 1836.55,448.688 1836.55,450.56L1836.55,496.208L1843.9,496.208L1843.9,449.552C1843.9,445.52 1842.46,442.352 1840.01,440.192C1839.87,440.048 1839.72,439.904 1839.58,439.76C1839.72,439.616 1839.87,439.472 1840.01,439.328C1842.46,437.168 1843.9,434 1843.9,429.968L1843.9,393.824ZM466.378,482.96C466.378,484.832 465.946,486.416 464.794,487.712C463.642,489.008 462.202,489.584 460.042,489.584C457.882,489.584 456.586,489.008 455.578,487.712C454.426,486.416 454.138,484.832 454.138,482.96L454.138,396.174L446.65,396.174L446.65,483.104C446.65,485.12 446.506,486.848 447.226,488.432C447.802,489.872 448.522,491.168 449.818,492.32C451.114,493.472 452.41,494.336 454.138,494.912C456.01,495.488 457.882,495.776 460.186,495.776C464.794,495.776 466.954,494.624 469.546,492.32C471.994,490.16 473.722,487.136 473.722,483.104L473.722,380L466.378,380L466.378,482.96ZM1033.02,387.488L1033.02,380.144L1009.98,380.144L1009.98,495.488L1033.02,495.488L1033.02,488.288L1017.18,488.288L1017.18,387.488L1033.02,387.488ZM696.634,387.488L696.634,380.144L673.594,380.144L673.594,495.488L696.634,495.488L696.634,488.288L680.794,488.288L680.794,387.488L696.634,387.488ZM1146.64,393.104C1146.64,389.072 1145.2,385.904 1142.76,383.744C1140.16,381.44 1137.14,380.288 1132.39,380.288L1119.57,380.288L1119.57,475.052L1126.77,475.052L1126.77,443.216L1132.68,443.216C1134.69,443.36 1136.42,443.936 1137.57,445.232C1138.58,446.384 1139.3,447.968 1139.3,449.84L1139.3,495.488L1146.64,495.488L1146.64,448.832C1146.64,444.8 1145.2,441.632 1142.76,439.472C1142.61,439.328 1142.47,439.184 1142.32,439.04C1142.47,438.896 1142.61,438.752 1142.76,438.608C1145.2,436.448 1146.64,433.28 1146.64,429.248L1146.64,393.104ZM810.106,393.104C810.106,389.072 808.666,385.904 806.218,383.744C803.626,381.44 800.602,380.288 795.85,380.288L783.034,380.288L783.034,475.052L790.234,475.052L790.234,443.216L796.138,443.216C798.154,443.36 799.882,443.936 801.034,445.232C802.042,446.384 802.762,447.968 802.762,449.84L802.762,495.488L810.106,495.488L810.106,448.832C810.106,444.8 808.666,441.632 806.218,439.472C806.074,439.328 805.93,439.184 805.786,439.04C805.93,438.896 806.074,438.752 806.218,438.608C808.666,436.448 810.106,433.28 810.106,429.248L810.106,393.104ZM903.706,495.488L903.706,380.144L896.506,380.144L896.506,495.488L903.706,495.488ZM916.378,380.144L916.378,495.488L923.578,495.488L923.578,380.144L916.378,380.144ZM1273.56,398.343L1273.56,477.123L1273.8,476.461L1273.8,477.323C1285.37,449.266 1284.56,426.013 1273.8,398.542L1273.8,399.013L1273.56,398.343ZM1704.79,476.48L1728.7,476.48L1720.35,380.864L1713.15,380.864L1704.79,476.48ZM1477.56,476.48L1501.47,476.48L1493.11,380.864L1485.91,380.864L1477.56,476.48ZM1932.02,476.48L1955.93,476.48L1947.58,380.864L1940.38,380.864L1932.02,476.48ZM572.938,380.288L560.122,380.288L560.122,475.488L567.322,475.488L567.322,443.216L572.938,443.216C577.69,443.216 580.714,442.064 583.306,439.76C585.754,437.456 587.194,434.432 587.194,430.4L587.194,393.104C587.194,389.072 585.754,385.904 583.306,383.744C580.714,381.44 577.69,380.288 572.938,380.288ZM336.189,467.72L336.19,475.051L328.859,475.052L328.858,467.721L336.189,467.72ZM1943.98,422.48L1948.15,469.28L1939.95,469.28L1943.98,422.48ZM1716.75,422.48L1720.92,469.28L1712.71,469.28L1716.75,422.48ZM1489.51,422.48L1493.69,469.28L1485.48,469.28L1489.51,422.48ZM1132.39,386.336C1134.4,386.48 1136.42,387.056 1137.57,388.352C1138.58,389.504 1139.3,391.088 1139.3,393.104L1139.3,429.248C1139.3,431.264 1138.58,432.848 1137.57,434C1136.42,435.296 1134.4,435.872 1132.39,436.016L1126.77,436.016L1126.77,386.336L1132.39,386.336ZM795.85,386.336C797.866,386.48 799.882,387.056 801.034,388.352C802.042,389.504 802.762,391.088 802.762,393.104L802.762,429.248C802.762,431.264 802.042,432.848 801.034,434C799.882,435.296 797.866,435.872 795.85,436.016L790.234,436.016L790.234,386.336L795.85,386.336ZM579.85,429.248C579.85,431.264 579.13,432.848 578.122,434C576.97,435.296 574.954,435.872 572.938,436.016L567.322,436.016L567.322,386.336L572.938,386.336C574.954,386.48 576.97,387.056 578.122,388.352C579.13,389.504 579.85,391.088 579.85,393.104L579.85,429.248ZM1028.02,404.15L1028.02,411.481L1020.69,411.482L1020.69,404.151L1028.02,404.15ZM913.582,404.15L913.582,411.481L906.251,411.482L906.25,404.151L913.582,404.15ZM695.299,404.15L695.3,411.481L687.969,411.482L687.968,404.151L695.299,404.15ZM453.97,380L453.97,387.331L446.639,387.332L446.638,380.001L453.97,380ZM1259.63,347.577L1259.66,347.64L1259.66,328.625C1259.66,325.021 1258.83,321.971 1256.61,319.753C1254.96,317.898 1253.01,316.656 1250.4,316.141L1250.41,316.236L1250.37,316.224C1251.02,325.525 1253.37,335.001 1257.98,344.369C1258.53,345.492 1259.08,346.61 1259.63,347.723L1259.63,347.577ZM1236.53,324.11C1236.21,325.387 1236.08,326.788 1236.07,328.289C1236.06,328.428 1236.06,328.568 1236.06,328.708L1236.06,503.108C1236.06,506.713 1236.62,509.763 1238.83,512.258C1240.78,514.753 1243.27,515.863 1247.43,515.863C1251.59,515.863 1254.36,514.753 1256.58,512.258C1256.92,511.876 1257.23,511.481 1257.5,511.074L1257.73,510.728L1257.92,510.402L1258.18,509.926C1258.23,509.84 1258.27,509.754 1258.31,509.667L1258.49,509.274L1258.69,508.795C1258.78,508.559 1258.87,508.319 1258.94,508.075C1259.45,506.535 1259.66,504.851 1259.66,503.025L1259.66,369.052C1257.95,365.927 1256.14,362.73 1254.25,359.452C1246.08,345.298 1242,331.154 1241.59,317.276C1240.54,317.906 1239.65,318.737 1238.87,319.753C1237.75,320.865 1237.06,322.186 1236.64,323.681L1236.06,328.708C1236.06,328.568 1236.06,328.428 1236.07,328.289C1236.08,326.788 1236.21,325.388 1236.53,324.11Z"/>
        </g>
    </g>
</svg>
